<?xml version="1.0" encoding="UTF-8"?>
<svg width="720px" height="440px" viewBox="0 0 720 440" version="1.1" xmlns="http://www.w3.org/2000/svg" xmlns:xlink="http://www.w3.org/1999/xlink">
    <!-- Generator: Sketch 52.6 (67491) - http://www.bohemiancoding.com/sketch -->
    <title>Artboard</title>
    <desc>Created with Sketch.</desc>
    <g id="Page-1" stroke="none" stroke-width="1" fill="none" fill-rule="evenodd">
        <g id="Artboard-Copy" transform="translate(-720.000000, -80.000000)">
            <g id="Sphere_wireframe" transform="translate(720.000000, -93.000000)" fill="#AAE1C6">
                <g id="sphere" transform="translate(773.000000, 750.500000) scale(-1, 1) rotate(-180.000000) translate(-773.000000, -750.500000) ">
                    <g id="sphere_front" transform="translate(0.000000, 0.000000)">
                        <g id="sphere_half" transform="translate(0.000000, 0.000000)">
                            <g id="meridians" transform="translate(0.000000, 280.966080)">
                                <path d="M749.088173,1166.7459 C763.856451,1167.04411 785.023764,906.133148 796.366691,583.984963 C807.709617,261.836779 804.93282,0.442332852 790.164542,0.144127637 C792.413888,0.181840094 794.663004,0.226965506 796.911827,0.279502584 C811.680106,0.577707799 814.456902,261.972154 803.113976,584.120338 C791.771049,906.268523 770.603736,1167.17948 755.835458,1166.88128 C753.586112,1166.84356 751.336996,1166.79844 749.088173,1166.7459 Z" id="meridian0"></path>
                                <path d="M666.221645,1161.43127 C713.213398,1166.32307 776.363325,1060.55629 831.869864,883.995017 C887.376403,707.433747 926.801038,486.920138 935.284404,305.56701 C943.76777,124.213882 920.020163,9.59187687 872.992188,4.90267373 C875.255585,5.1255968 877.517663,5.35608658 879.778355,5.59413628 C952.372412,13.1511148 964.946364,278.000378 907.868038,597.256282 C850.789712,916.512186 745.657825,1169.36673 673.007812,1162.12273 C670.744415,1161.89981 668.482337,1161.66932 666.221645,1161.43127 Z" id="meridian1"></path>
                                <path d="M580.567834,1148.65526 C661.852526,1164.36004 773.074866,1070.88487 872.285725,903.485279 C971.496584,736.085688 1043.60083,520.231864 1061.40329,337.336225 C1079.20575,154.440586 1039.99775,32.3310759 958.567153,17.0630784 C960.858122,17.4908549 963.146484,17.9265489 965.432166,18.3701469 C1090.90119,42.6116511 1108.04833,315.193098 1003.74631,627.43531 C899.444301,939.677521 713.127081,1173.52963 587.432847,1149.96233 C585.141878,1149.53455 582.853516,1149.09886 580.567834,1148.65526 Z" id="meridian2"></path>
                                <path d="M490.023252,1126.52087 C599.729619,1159.04204 754.587359,1085.17915 896.140162,932.814244 C1037.69297,780.449337 1144.38152,572.788476 1175.93262,388.220296 C1207.48371,203.652117 1159.09193,70.2874225 1049.02439,38.4692419 C1051.34616,39.1392309 1053.66364,39.8176696 1055.97675,40.5045342 C1225.1478,90.6533208 1237.29661,374.229923 1083.12958,674.303889 C928.962549,974.377855 666.703605,1177.62091 496.975614,1128.55616 C494.653839,1127.88617 492.336358,1127.20774 490.023252,1126.52087 Z" id="meridian3"></path>
                                <path d="M392.942955,1091.62623 C522.080622,1146.6382 713.581427,1100.0664 895.085698,969.50824 C1076.58997,838.950084 1220.42106,644.313716 1272.23156,459.143596 C1324.04207,273.973476 1275.93168,126.505242 1146.07917,72.4606074 C1148.41182,73.4310495 1150.73781,74.4105859 1153.05704,75.3991774 C1351.96063,160.131064 1344.93622,456.027682 1137.35256,736.935869 C929.768895,1017.84406 599.92543,1177.80675 399.920826,1094.5648 C397.588178,1093.59436 395.26219,1092.61482 392.942955,1091.62623 Z" id="meridian4"></path>
                                <path d="M289.176208,1038.59426 C425.069246,1120.88769 642.821314,1109.52961 860.080756,1008.81555 C1077.3402,908.101488 1260.94325,733.405026 1341.45307,550.79462 C1421.96289,368.184214 1387.08998,205.534597 1250.02294,124.358227 C1252.29997,125.706247 1254.56696,127.063908 1256.82379,128.431146 C1465.91383,255.050845 1420.93983,561.179526 1156.24776,813.031381 C891.555683,1064.88324 506.873471,1167.56813 295.977062,1042.66718 C293.700029,1041.31916 291.433042,1039.9615 289.176208,1038.59426 Z" id="meridian5"></path>
                                <path d="M182.434957,960.010853 C308.202391,1072.39396 537.246915,1103.7588 782.863705,1042.23221 C1028.4805,980.705625 1253.13453,835.690067 1371.783,662.081191 C1490.43148,488.472315 1484.9426,312.800933 1357.39418,201.567461 C1359.46589,203.373605 1361.52288,205.189336 1363.56504,207.014552 C1556.85799,379.737022 1451.60467,688.180052 1128.11596,896.993997 C804.627257,1105.80794 384.635968,1136.41353 188.605816,965.457944 C186.53411,963.6518 184.477118,961.836069 182.434957,960.010853 Z" id="meridian6"></path>
                                <path d="M84.244632,848.411714 C179.445203,989.407981 399.298619,1068.50857 660.510933,1055.74532 C921.723247,1042.98208 1184.33695,940.307387 1348.85788,786.620718 C1513.3788,632.934049 1554.64028,451.74477 1457.00992,311.698481 C1458.6121,313.995557 1460.19395,316.300678 1461.75537,318.61369 C1607.9278,535.10154 1420.79295,829.378943 1043.03262,977.072775 C665.272289,1124.76661 238.893238,1070.35616 88.990079,855.326923 C87.387903,853.029848 85.8060521,850.724727 84.244632,848.411714 Z" id="meridian7"></path>
                                <path d="M16.330398,702.820627 C60.9365254,863.909279 247.302192,989.459803 504.778987,1031.87789 C762.255781,1074.29598 1051.42985,1027.08838 1262.67966,908.150786 C1473.92947,789.213193 1574.91748,616.752251 1527.36065,456.1453 C1528.15544,458.827654 1528.92511,461.514214 1529.6696,464.204778 C1598.11076,711.370225 1317.63326,965.839703 901.973555,1033.69605 C486.313847,1101.5524 91.607897,957.306456 18.639349,710.880105 C17.8445621,708.197751 17.0748925,705.511191 16.330398,702.820627 Z" id="meridian8"></path>
                                <path d="M2.3963,537.606008 C-14.8850936,702.94767 117.161914,864.147242 348.468056,960.081459 C579.774198,1056.01568 874.921413,1071.9949 1121.99649,1001.96016 C1369.07157,931.925426 1530.24188,786.600591 1544.39525,621.089578 C1544.15773,623.867574 1543.89387,626.644252 1543.6037,629.419397 C1517.09576,883.037072 1153.13908,1069.33178 729.023213,1046.37022 C304.907345,1023.40866 -20.1051164,799.813268 1.604748,545.935826 C1.8422733,543.15783 2.10613072,540.381153 2.3963,537.606008 Z" id="meridian9"></path>
                                <path d="M48.507296,380.063997 C-26.3335378,531.939411 43.7555438,710.951375 232.208512,849.248566 C420.66148,987.545757 698.635239,1063.96152 960.768743,1049.5318 C1222.90225,1035.10209 1429.07545,932.035395 1501.14204,779.397333 C1499.94865,781.924996 1498.73217,784.446414 1497.4927,786.961408 C1382.64226,1020.02881 967.021309,1119.56204 567.391673,1009.70274 C167.762037,899.843442 -65.7351333,621.865826 44.857963,387.628072 C46.0513525,385.100409 47.2678258,382.578991 48.507296,380.063997 Z" id="meridian10"></path>
                                <path d="M136.71278,252.171433 C21.4472336,378.345681 37.2597033,558.128098 178.161934,723.434258 C319.064165,888.740417 563.513063,1014.29601 818.934708,1052.55256 C1074.35635,1090.80911 1301.69833,1035.91743 1414.86519,908.665236 C1413.02341,910.737129 1411.16405,912.800084 1409.28722,914.853972 C1232.22013,1108.67864 804.759047,1119.28604 452.9463,938.58545 C101.133552,757.884864 -42.7083406,453.840741 131.134812,258.360169 C132.976587,256.288276 134.835948,254.225321 136.71278,252.171433 Z" id="meridian11"></path>
                                <path d="M242.255108,159.280879 C107.5813,255.311962 85.220168,425.024782 183.632757,604.203096 C282.045346,783.38141 486.200282,944.657821 718.849051,1027.00827 C951.497821,1109.35872 1177.10604,1100.20514 1310.30766,1003.01107 C1308.13236,1004.59857 1305.94474,1006.17642 1303.74489,1007.74453 C1096.65488,1155.41302 691.352103,1086.93124 397.21759,854.573598 C103.083078,622.21596 30.8661313,313.471161 235.692338,164.014334 C237.867637,162.426834 240.055265,160.848988 242.255108,159.280879 Z" id="meridian12"></path>
                                <path d="M348.721171,95.7509334 C213.437539,162.834956 170.109516,317.918549 235.116058,502.376666 C300.122599,686.834782 463.545977,872.525556 663.608522,989.253747 C863.671067,1105.98194 1069.85022,1135.9389 1204.20568,1067.80024 C1201.905,1068.96768 1199.59602,1070.12578 1197.27883,1071.27447 C989.017336,1174.54653 629.802713,1041.39353 394.072211,773.543362 C158.341709,505.693194 134.961693,204.120783 341.794318,99.225168 C344.095,98.0577222 346.403984,96.8996272 348.721171,95.7509334 Z" id="meridian13"></path>
                                <path d="M449.343354,53.610813 C328.076201,95.8759226 278.440367,236.020425 319.180038,421.120971 C359.919709,606.221516 484.827049,808.07283 646.732783,950.448962 C808.638516,1092.82509 982.871749,1154.03104 1103.63606,1110.95334 C1101.31502,1111.7825 1098.98852,1112.60293 1096.65665,1113.41459 C909.74623,1178.55828 612.396834,995.289854 431.992846,703.755491 C251.588857,412.221128 256.228553,122.468212 442.363937,56.0720696 C444.684979,55.2429051 447.011481,54.422476 449.343354,53.610813 Z" id="meridian14"></path>
                                <path d="M542.938967,26.4424616 C446.300517,49.2662433 401.534483,176.577146 425.530175,360.343365 C449.525868,544.109583 538.630966,756.360538 659.227933,917.018274 C779.824901,1077.67601 913.557986,1162.28723 1009.97243,1138.92985 C1007.67206,1139.48903 1005.36824,1140.04007 1003.06103,1140.58294 C853.945957,1175.8005 628.811887,955.740211 499.966348,648.82636 C371.120809,341.91251 387.25815,64.1364626 536.027574,28.0955531 C538.327936,27.5363702 540.631759,26.9853336 542.938967,26.4424616 Z" id="meridian15"></path>
                                <path d="M630.701522,9.97223208 C565.926737,19.1955507 533.851279,137.053284 546.568389,319.110151 C559.2855,501.167018 614.861101,719.734947 692.341815,892.408422 C769.82253,1065.0819 857.424724,1165.59992 922.120203,1156.0647 C919.848267,1156.4019 917.574336,1156.7314 915.298478,1157.05317 C815.27001,1171.29628 669.052541,926.540997 588.62279,610.226574 C508.193039,293.912152 523.973798,25.685459 623.879797,10.9607026 C626.151733,10.6235017 628.425664,10.2940082 630.701522,9.97223208 Z" id="meridian16"></path>
                                <path d="M714.62675,1.66592877 C686.120464,3.38960221 671.549713,115.842732 676.403158,296.665312 C681.256603,477.487892 704.79689,699.20867 738.156621,878.307572 C771.516353,1057.40647 809.62739,1166.67412 838.133676,1164.95043 C835.881004,1165.09424 833.627507,1165.23059 831.37325,1165.35948 C787.306351,1168.02404 723.935105,909.774004 689.82961,588.541863 C655.724115,267.309722 663.799427,4.73955291 707.866324,2.07497117 C710.118996,1.93116192 712.372493,1.79481314 714.62675,1.66592877 Z" id="meridian17"></path>
                            </g>
                            <g id="circles_of_latitude" transform="translate(0.000000, 0.000000)">
                                <path d="M0.011595,867.688003 C-0.863555433,740.514297 146.275508,622.828499 385.798434,559.125269 C625.32136,495.422039 920.67864,495.422039 1160.20157,559.125269 C1399.72449,622.828499 1546.86356,740.514297 1545.9884,867.688003 C1546.00399,865.548539 1546.00399,863.409026 1545.9884,861.269562 C1544.6414,665.52822 1198.95755,507.176002 773,507.176002 C347.042454,507.176002 1.35859608,665.52822 0.011595,861.269562 C-0.00399298755,863.409026 -0.00399298755,865.548539 0.011595,867.688003 Z" id="circle_of_latitude9"></path>
                                <path d="M19.694494,995.356597 C-21.5356142,860.13082 112.357611,726.252157 362.521214,652.567161 C612.684816,578.882166 933.315184,578.882166 1183.47879,652.567161 C1433.64239,726.252157 1567.53561,860.13082 1526.30551,995.356597 C1526.94713,993.252173 1527.57327,991.145076 1528.1839,989.035404 C1567.2529,854.055865 1432.4602,720.912042 1182.61913,647.69782 C932.77806,574.483598 613.22194,574.483598 363.380871,647.69782 C113.539802,720.912042 -21.2528971,854.055865 17.816104,989.035404 C18.4267343,991.145076 19.0528739,993.252173 19.694494,995.356597 Z" id="circle_of_latitude10"></path>
                                <path d="M77.443005,1119.04845 C-10.1295297,982.70441 100.145001,835.843268 352.053246,753.328704 C603.961491,670.81414 942.038509,670.81414 1193.94675,753.328704 C1445.855,835.843268 1556.12953,982.70441 1468.55699,1119.04845 C1469.84485,1117.04358 1471.11749,1115.03315 1472.37484,1113.01727 C1557.48485,976.546425 1445.76013,830.256663 1193.72492,748.15951 C941.689709,666.062357 604.310291,666.062357 352.275079,748.15951 C100.239867,830.256663 -11.484853,976.546425 73.625158,1113.01727 C74.8825088,1115.03315 76.1551454,1117.04358 77.443005,1119.04845 Z" id="circle_of_latitude11"></path>
                                <path d="M175.843586,1235.00526 C35.3014114,1105.93792 109.480647,949.308611 354.034781,858.754904 C598.588915,768.201196 947.411085,768.201196 1191.96522,858.754904 C1436.51935,949.308611 1510.69859,1105.93792 1370.15641,1235.00526 C1372.16373,1233.16166 1374.15605,1231.30878 1376.13325,1229.44672 C1513.83541,1099.77681 1437.48671,943.564712 1192.34438,853.408269 C947.202039,763.251827 598.797961,763.251827 353.655624,853.408269 C108.513287,943.564712 32.1645902,1099.77681 169.86675,1229.44672 C171.843952,1231.30878 173.836269,1233.16166 175.843586,1235.00526 Z" id="circle_of_latitude12"></path>
                                <path d="M324.448198,1339.70378 C120.564878,1230.0466 139.203022,1066.23079 366.859192,966.941804 C594.515362,867.652816 951.484638,867.652816 1179.14081,966.941804 C1406.79698,1066.23079 1425.43512,1230.0466 1221.5518,1339.70378 C1224.56867,1338.0812 1227.57005,1336.44226 1230.55571,1334.7871 C1430.8745,1223.73573 1408.7246,1060.24526 1179.97814,961.469355 C951.231669,862.693446 594.768331,862.693446 366.021864,961.469355 C137.275397,1060.24526 115.125498,1223.73573 315.444294,1334.7871 C318.42995,1336.44226 321.431329,1338.0812 324.448198,1339.70378 Z" id="circle_of_latitude13"></path>
                                <path d="M582.337231,1429.96328 C365.058486,1388.21828 242.045084,1281.8269 288.37117,1175.71899 C334.697256,1069.61108 537.495637,993.258396 773,993.258396 C1008.50436,993.258396 1211.30274,1069.61108 1257.62883,1175.71899 C1303.95492,1281.8269 1180.94151,1388.21828 963.662769,1429.96328 C970.458212,1428.65755 977.229803,1427.28208 983.975663,1425.83726 C1196.26319,1380.37433 1311.29315,1273.23047 1260.62706,1168.15222 C1209.96096,1063.07397 1007.20861,988.287189 773,988.287189 C538.791389,988.287189 336.039039,1063.07397 285.372944,1168.15222 C234.70685,1273.23047 349.736808,1380.37433 562.024337,1425.83726 C568.770197,1427.28208 575.541788,1428.65755 582.337231,1429.96328 Z" id="circle_of_latitude14"></path>
                                <path d="M389.424259,1266.39533 C389.424259,1363.74422 561.156968,1442.6611 773,1442.6611 C984.843032,1442.6611 1156.57574,1363.74422 1156.57574,1266.39533 C1156.57574,1169.04644 984.843032,1090.12956 773,1090.12956 C561.156968,1090.12956 389.424259,1169.04644 389.424259,1266.39533 Z M383.582698,1264.37579 C383.582698,1165.54416 557.930763,1085.42528 773,1085.42528 C988.069237,1085.42528 1162.4173,1165.54416 1162.4173,1264.37579 C1162.4173,1328.30865 1088.19478,1387.38505 967.708651,1419.35148 C847.222518,1451.31791 698.777482,1451.31791 578.291349,1419.35148 C457.805216,1387.38505 383.582698,1328.30865 383.582698,1264.37579 Z" id="circle_of_latitude15" fill-rule="nonzero"></path>
                                <path d="M511.790159,1300.17896 C511.790159,1366.47245 628.737788,1420.21395 773,1420.21395 C917.262212,1420.21395 1034.20984,1366.47245 1034.20984,1300.17896 C1034.20984,1233.88548 917.262212,1180.14398 773,1180.14398 C628.737788,1180.14398 511.790159,1233.88548 511.790159,1300.17896 Z M505.451559,1298.79721 C505.451559,1230.89497 625.237076,1175.84933 773,1175.84933 C920.762924,1175.84933 1040.54844,1230.89497 1040.54844,1298.79721 C1040.54844,1342.72225 989.553996,1383.31067 906.77422,1405.27319 C823.994445,1427.23571 722.005555,1427.23571 639.225779,1405.27319 C556.446004,1383.31067 505.451559,1342.72225 505.451559,1298.79721 Z" id="circle_of_latitude16" fill-rule="nonzero"></path>
                                <path d="M642.09245,1320.72386 C642.09245,1353.94715 700.701756,1380.87994 773,1380.87994 C845.298244,1380.87994 903.90755,1353.94715 903.90755,1320.72386 C903.90755,1287.50058 845.298244,1260.56779 773,1260.56779 C700.701756,1260.56779 642.09245,1287.50058 642.09245,1320.72386 Z M635.449288,1320.02248 C635.449288,1285.11311 697.032839,1256.81347 773,1256.81347 C848.967161,1256.81347 910.550712,1285.11311 910.550712,1320.02248 C910.550712,1342.60489 884.333694,1363.47189 841.775356,1374.76309 C799.217018,1386.0543 746.782982,1386.0543 704.224644,1374.76309 C661.666306,1363.47189 635.449288,1342.60489 635.449288,1320.02248 Z" id="circle_of_latitude17" fill-rule="nonzero"></path>
                            </g>
                        </g>
                    </g>
                </g>
            </g>
            <polygon id="Rectangle" fill="#FFFFFF" fill-rule="nonzero" transform="translate(1232.899495, 482.899495) rotate(-315.000000) translate(-1232.899495, -482.899495) " points="1225.89949 475.899495 1232.58935 479.294311 1239.88933 475.909658 1236.09526 482.800221 1239.89949 489.899495 1232.80022 486.095261 1225.90966 489.889332 1229.29431 482.589351"></polygon>
            <polygon id="Rectangle-Copy-2" fill="#FFFFFF" fill-rule="nonzero" transform="translate(982.949747, 100.949747) rotate(-315.000000) translate(-982.949747, -100.949747) " points="979.449747 97.4497475 982.794676 99.1471554 986.444666 97.4548291 984.547631 100.90011 986.449747 104.449747 982.90011 102.547631 979.454829 104.444666 981.147155 100.794676"></polygon>
            <polygon id="Rectangle-Copy-3" fill="#FFFFFF" fill-rule="nonzero" transform="translate(738.949747, 509.949747) rotate(-315.000000) translate(-738.949747, -509.949747) " points="735.449747 506.449747 738.794676 508.147155 742.444666 506.454829 740.547631 509.90011 742.449747 513.449747 738.90011 511.547631 735.454829 513.444666 737.147155 509.794676"></polygon>
            <polygon id="Rectangle-Copy" class="greenPulse" fill="#E9DCF7" fill-rule="nonzero" transform="translate(833.556349, 381.556349) rotate(-315.000000) translate(-833.556349, -381.556349) " points="822.556349 370.556349 833.068981 375.89106 844.540378 370.57232 838.578268 381.400347 844.556349 392.556349 833.400347 386.578268 822.57232 392.540378 827.89106 381.068981"></polygon>
            <polygon id="Rectangle-Copy-4" class="greenPulse" fill="#E9DCF7" fill-rule="nonzero" transform="translate(1376.798990, 301.798990) rotate(-315.000000) translate(-1376.798990, -301.798990) " points="1360.79899 285.79899 1376.09009 293.558569 1392.77576 285.82222 1384.1036 301.572078 1392.79899 317.79899 1376.57208 309.103599 1360.82222 317.775759 1368.55857 301.09009"></polygon>
        </g>
    </g>
</svg>